{
    "accessors" : [
        {
            "bufferView" : 0,
            "componentType" : 5123,
            "count" : 426,
            "max" : [
                403
            ],
            "min" : [
                0
            ],
            "type" : "SCALAR"
        },
        {
            "bufferView" : 1,
            "componentType" : 5126,
            "count" : 404,
            "max" : [
                113.99156951904297,
                93.67666625976562,
                102.1683578491211
            ],
            "min" : [
                -122.25235748291016,
                -25.747880935668945,
                -101.19086456298828
            ],
            "type" : "VEC3"
        },
        {
            "bufferView" : 2,
            "componentType" : 5126,
            "count" : 404,
            "max" : [
                0.9867854714393616,
                0.9975280165672302,
                0.9801019430160522
            ],
            "min" : [
                -0.9787896275520325,
                -0.9973449110984802,
                -0.9676808714866638
            ],
            "type" : "VEC3"
        }
    ],
    "asset" : {
        "generator" : "Khronos Blender glTF 2.0 exporter",
        "version" : "2.0"
    },
    "bufferViews" : [
        {
            "buffer" : 0,
            "byteLength" : 852,
            "byteOffset" : 0,
            "target" : 34963
        },
        {
            "buffer" : 0,
            "byteLength" : 4848,
            "byteOffset" : 852,
            "target" : 34962
        },
        {
            "buffer" : 0,
            "byteLength" : 4848,
            "byteOffset" : 5700,
            "target" : 34962
        }
    ],
    "buffers" : [
        {
            "byteLength" : 10548,
            "uri" : "bush2.bin"
        }
    ],
    "materials" : [
        {
            "name" : "Bush_1",
            "pbrMetallicRoughness" : {
                "baseColorFactor" : [
                    0.1741331245621014,
                    0.27924528538056137,
                    0.10405838644591547,
                    1.0
                ],
                "metallicFactor" : 0.0
            }
        }
    ],
    "meshes" : [
        {
            "name" : "Scene",
            "primitives" : [
                {
                    "attributes" : {
                        "NORMAL" : 2,
                        "POSITION" : 1
                    },
                    "indices" : 0,
                    "material" : 0
                }
            ]
        }
    ],
    "nodes" : [
        {
            "children" : [
                1
            ],
            "name" : "Bush_1_2",
            "rotation" : [
                0.7071068286895752,
                0.0,
                0.0,
                0.7071067094802856
            ],
            "scale" : [
                0.009999999776482582,
                0.009999999776482582,
                0.009999999776482582
            ]
        },
        {
            "mesh" : 0,
            "name" : "Bush_1_2_LOD0"
        }
    ],
    "scene" : 0,
    "scenes" : [
        {
            "name" : "Scene",
            "nodes" : [
                0
            ]
        }
    ]
}
