{
    "accessors" : [
        {
            "bufferView" : 0,
            "componentType" : 5123,
            "count" : 582,
            "max" : [
                555
            ],
            "min" : [
                0
            ],
            "type" : "SCALAR"
        },
        {
            "bufferView" : 1,
            "componentType" : 5126,
            "count" : 556,
            "max" : [
                123.65650177001953,
                100.68824005126953,
                102.58134460449219
            ],
            "min" : [
                -155.1880645751953,
                -16.497573852539062,
                -120.37480163574219
            ],
            "type" : "VEC3"
        },
        {
            "bufferView" : 2,
            "componentType" : 5126,
            "count" : 556,
            "max" : [
                0.9953001737594604,
                0.999267578125,
                0.9951475858688354
            ],
            "min" : [
                -0.9688711166381836,
                -0.9981383681297302,
                -0.9663075804710388
            ],
            "type" : "VEC3"
        }
    ],
    "asset" : {
        "generator" : "Khronos Blender glTF 2.0 exporter",
        "version" : "2.0"
    },
    "bufferViews" : [
        {
            "buffer" : 0,
            "byteLength" : 1164,
            "byteOffset" : 0,
            "target" : 34963
        },
        {
            "buffer" : 0,
            "byteLength" : 6672,
            "byteOffset" : 1164,
            "target" : 34962
        },
        {
            "buffer" : 0,
            "byteLength" : 6672,
            "byteOffset" : 7836,
            "target" : 34962
        }
    ],
    "buffers" : [
        {
            "byteLength" : 14508,
            "uri" : "bush1.bin"
        }
    ],
    "materials" : [
        {
            "name" : "Bush_1.001",
            "pbrMetallicRoughness" : {
                "baseColorFactor" : [
                    0.1741331245621014,
                    0.27924528538056137,
                    0.10405838644591547,
                    1.0
                ],
                "metallicFactor" : 0.0
            }
        }
    ],
    "meshes" : [
        {
            "name" : "Scene.002",
            "primitives" : [
                {
                    "attributes" : {
                        "NORMAL" : 2,
                        "POSITION" : 1
                    },
                    "indices" : 0,
                    "material" : 0
                }
            ]
        }
    ],
    "nodes" : [
        {
            "children" : [
                1
            ],
            "name" : "Bush_1_1",
            "rotation" : [
                0.7071068286895752,
                0.0,
                0.0,
                0.7071067094802856
            ],
            "scale" : [
                0.009999999776482582,
                0.009999999776482582,
                0.009999999776482582
            ]
        },
        {
            "mesh" : 0,
            "name" : "Bush_1_1_LOD0"
        }
    ],
    "scene" : 0,
    "scenes" : [
        {
            "name" : "Scene",
            "nodes" : [
                0
            ]
        }
    ]
}
