{
    "accessors" : [
        {
            "bufferView" : 0,
            "componentType" : 5123,
            "count" : 270,
            "max" : [
                171
            ],
            "min" : [
                0
            ],
            "type" : "SCALAR"
        },
        {
            "bufferView" : 1,
            "componentType" : 5126,
            "count" : 172,
            "max" : [
                194.57615661621094,
                71.53819274902344,
                61.2264518737793
            ],
            "min" : [
                -139.7808380126953,
                -2.6174123287200928,
                -28.226652145385742
            ],
            "type" : "VEC3"
        },
        {
            "bufferView" : 2,
            "componentType" : 5126,
            "count" : 172,
            "max" : [
                0.8757286071777344,
                0.999664306640625,
                0.999908447265625
            ],
            "min" : [
                -0.9813226461410522,
                -0.999969482421875,
                -0.999725341796875
            ],
            "type" : "VEC3"
        },
        {
            "bufferView" : 3,
            "componentType" : 5123,
            "count" : 15,
            "max" : [
                8
            ],
            "min" : [
                0
            ],
            "type" : "SCALAR"
        },
        {
            "bufferView" : 4,
            "componentType" : 5126,
            "count" : 9,
            "max" : [
                186.80824279785156,
                43.793113708496094,
                24.32868766784668
            ],
            "min" : [
                -134.55714416503906,
                1.7835050821304321,
                -22.914003372192383
            ],
            "type" : "VEC3"
        },
        {
            "bufferView" : 5,
            "componentType" : 5126,
            "count" : 9,
            "max" : [
                0.999786376953125,
                -0.01654103212058544,
                -0.0054322946816682816
            ],
            "min" : [
                -0.999725341796875,
                -0.04208502545952797,
                -0.028077028691768646
            ],
            "type" : "VEC3"
        }
    ],
    "asset" : {
        "generator" : "Khronos Blender glTF 2.0 exporter",
        "version" : "2.0"
    },
    "bufferViews" : [
        {
            "buffer" : 0,
            "byteLength" : 540,
            "byteOffset" : 0,
            "target" : 34963
        },
        {
            "buffer" : 0,
            "byteLength" : 2064,
            "byteOffset" : 540,
            "target" : 34962
        },
        {
            "buffer" : 0,
            "byteLength" : 2064,
            "byteOffset" : 2604,
            "target" : 34962
        },
        {
            "buffer" : 0,
            "byteLength" : 30,
            "byteOffset" : 4668,
            "target" : 34963
        },
        {
            "buffer" : 0,
            "byteLength" : 108,
            "byteOffset" : 4700,
            "target" : 34962
        },
        {
            "buffer" : 0,
            "byteLength" : 108,
            "byteOffset" : 4808,
            "target" : 34962
        }
    ],
    "buffers" : [
        {
            "byteLength" : 4916,
            "uri" : "fallentree1.bin"
        }
    ],
    "materials" : [
        {
            "name" : "Trunk_1",
            "pbrMetallicRoughness" : {
                "baseColorFactor" : [
                    0.23396225324216857,
                    0.1325844307628934,
                    0.11587752276476504,
                    1.0
                ],
                "metallicFactor" : 0.0
            }
        },
        {
            "name" : "TrunkDamage_1",
            "pbrMetallicRoughness" : {
                "baseColorFactor" : [
                    0.5584905707611227,
                    0.46662932137592605,
                    0.3556425862855104,
                    1.0
                ],
                "metallicFactor" : 0.0
            }
        }
    ],
    "meshes" : [
        {
            "name" : "Scene.004",
            "primitives" : [
                {
                    "attributes" : {
                        "NORMAL" : 2,
                        "POSITION" : 1
                    },
                    "indices" : 0,
                    "material" : 0
                },
                {
                    "attributes" : {
                        "NORMAL" : 5,
                        "POSITION" : 4
                    },
                    "indices" : 3,
                    "material" : 1
                }
            ]
        }
    ],
    "nodes" : [
        {
            "children" : [
                1
            ],
            "name" : "FallenTree_1_1",
            "rotation" : [
                0.7071068286895752,
                0.0,
                0.0,
                0.7071067094802856
            ],
            "scale" : [
                0.009999999776482582,
                0.009999999776482582,
                0.009999999776482582
            ]
        },
        {
            "mesh" : 0,
            "name" : "FallenTree_1_1_LOD0"
        }
    ],
    "scene" : 0,
    "scenes" : [
        {
            "name" : "Scene",
            "nodes" : [
                0
            ]
        }
    ]
}
