{
    "accessors" : [
        {
            "bufferView" : 0,
            "componentType" : 5123,
            "count" : 63,
            "max" : [
                62
            ],
            "min" : [
                0
            ],
            "type" : "SCALAR"
        },
        {
            "bufferView" : 1,
            "componentType" : 5126,
            "count" : 63,
            "max" : [
                43.95905303955078,
                43.67543029785156,
                33.418766021728516
            ],
            "min" : [
                -33.405426025390625,
                -0.4694010019302368,
                -39.36582946777344
            ],
            "type" : "VEC3"
        },
        {
            "bufferView" : 2,
            "componentType" : 5126,
            "count" : 63,
            "max" : [
                0.8131046295166016,
                0.6370433568954468,
                0.8627277612686157
            ],
            "min" : [
                -0.8771935105323792,
                0.3181249499320984,
                -0.8823206424713135
            ],
            "type" : "VEC3"
        }
    ],
    "asset" : {
        "generator" : "Khronos Blender glTF 2.0 exporter",
        "version" : "2.0"
    },
    "bufferViews" : [
        {
            "buffer" : 0,
            "byteLength" : 126,
            "byteOffset" : 0,
            "target" : 34963
        },
        {
            "buffer" : 0,
            "byteLength" : 756,
            "byteOffset" : 128,
            "target" : 34962
        },
        {
            "buffer" : 0,
            "byteLength" : 756,
            "byteOffset" : 884,
            "target" : 34962
        }
    ],
    "buffers" : [
        {
            "byteLength" : 1640,
            "uri" : "grass1.bin"
        }
    ],
    "materials" : [
        {
            "name" : "Grass_1",
            "pbrMetallicRoughness" : {
                "baseColorFactor" : [
                    0.33672800565850736,
                    0.5207547265403676,
                    0.10562478461302494,
                    1.0
                ],
                "metallicFactor" : 0.0
            }
        }
    ],
    "meshes" : [
        {
            "name" : "Scene",
            "primitives" : [
                {
                    "attributes" : {
                        "NORMAL" : 2,
                        "POSITION" : 1
                    },
                    "indices" : 0,
                    "material" : 0
                }
            ]
        }
    ],
    "nodes" : [
        {
            "mesh" : 0,
            "name" : "Grass_1_1",
            "rotation" : [
                0.7071068286895752,
                0.0,
                0.0,
                0.7071067094802856
            ],
            "scale" : [
                0.009999999776482582,
                0.009999999776482582,
                0.009999999776482582
            ]
        }
    ],
    "scene" : 0,
    "scenes" : [
        {
            "name" : "Scene",
            "nodes" : [
                0
            ]
        }
    ]
}
