{
    "accessors" : [
        {
            "bufferView" : 0,
            "componentType" : 5123,
            "count" : 45,
            "max" : [
                44
            ],
            "min" : [
                0
            ],
            "type" : "SCALAR"
        },
        {
            "bufferView" : 1,
            "componentType" : 5126,
            "count" : 45,
            "max" : [
                39.780845642089844,
                69.56112670898438,
                22.52906036376953
            ],
            "min" : [
                -26.607666015625,
                -0.3313642144203186,
                -29.150617599487305
            ],
            "type" : "VEC3"
        },
        {
            "bufferView" : 2,
            "componentType" : 5126,
            "count" : 45,
            "max" : [
                0.8734092116355896,
                0.6675618886947632,
                0.503128170967102
            ],
            "min" : [
                -0.9282509684562683,
                0.21744437515735626,
                -0.9524521827697754
            ],
            "type" : "VEC3"
        },
        {
            "bufferView" : 3,
            "componentType" : 5123,
            "count" : 60,
            "max" : [
                59
            ],
            "min" : [
                0
            ],
            "type" : "SCALAR"
        },
        {
            "bufferView" : 4,
            "componentType" : 5126,
            "count" : 60,
            "max" : [
                49.065555572509766,
                73.66854858398438,
                30.718198776245117
            ],
            "min" : [
                -33.494232177734375,
                47.687068939208984,
                -34.90856170654297
            ],
            "type" : "VEC3"
        },
        {
            "bufferView" : 5,
            "componentType" : 5126,
            "count" : 60,
            "max" : [
                0.9404584169387817,
                0.964629054069519,
                0.9579149484634399
            ],
            "min" : [
                -0.8904385566711426,
                -0.252052366733551,
                -0.8778038620948792
            ],
            "type" : "VEC3"
        }
    ],
    "asset" : {
        "generator" : "Khronos Blender glTF 2.0 exporter",
        "version" : "2.0"
    },
    "bufferViews" : [
        {
            "buffer" : 0,
            "byteLength" : 90,
            "byteOffset" : 0,
            "target" : 34963
        },
        {
            "buffer" : 0,
            "byteLength" : 540,
            "byteOffset" : 92,
            "target" : 34962
        },
        {
            "buffer" : 0,
            "byteLength" : 540,
            "byteOffset" : 632,
            "target" : 34962
        },
        {
            "buffer" : 0,
            "byteLength" : 120,
            "byteOffset" : 1172,
            "target" : 34963
        },
        {
            "buffer" : 0,
            "byteLength" : 720,
            "byteOffset" : 1292,
            "target" : 34962
        },
        {
            "buffer" : 0,
            "byteLength" : 720,
            "byteOffset" : 2012,
            "target" : 34962
        }
    ],
    "buffers" : [
        {
            "byteLength" : 2732,
            "uri" : "grass2.bin"
        }
    ],
    "materials" : [
        {
            "name" : "Flower_1",
            "pbrMetallicRoughness" : {
                "baseColorFactor" : [
                    0.7773584958517326,
                    0.5246430475211596,
                    0.11367033889398481,
                    1.0
                ],
                "metallicFactor" : 0.0
            }
        },
        {
            "name" : "Grass_1",
            "pbrMetallicRoughness" : {
                "baseColorFactor" : [
                    0.33672800565850736,
                    0.5207547265403676,
                    0.10562478461302494,
                    1.0
                ],
                "metallicFactor" : 0.0
            }
        }
    ],
    "meshes" : [
        {
            "name" : "Scene",
            "primitives" : [
                {
                    "attributes" : {
                        "NORMAL" : 2,
                        "POSITION" : 1
                    },
                    "indices" : 0,
                    "material" : 1
                },
                {
                    "attributes" : {
                        "NORMAL" : 5,
                        "POSITION" : 4
                    },
                    "indices" : 3,
                    "material" : 0
                }
            ]
        }
    ],
    "nodes" : [
        {
            "mesh" : 0,
            "name" : "Grass_1_2",
            "rotation" : [
                0.7071068286895752,
                0.0,
                0.0,
                0.7071067094802856
            ],
            "scale" : [
                0.009999999776482582,
                0.009999999776482582,
                0.009999999776482582
            ]
        }
    ],
    "scene" : 0,
    "scenes" : [
        {
            "name" : "Scene",
            "nodes" : [
                0
            ]
        }
    ]
}
