{
    "accessors" : [
        {
            "bufferView" : 0,
            "componentType" : 5123,
            "count" : 108,
            "max" : [
                91
            ],
            "min" : [
                0
            ],
            "type" : "SCALAR"
        },
        {
            "bufferView" : 1,
            "componentType" : 5126,
            "count" : 92,
            "max" : [
                33.887596130371094,
                95.65228271484375,
                29.674989700317383
            ],
            "min" : [
                -26.212068557739258,
                -3.6000475883483887,
                -47.69976806640625
            ],
            "type" : "VEC3"
        },
        {
            "bufferView" : 2,
            "componentType" : 5126,
            "count" : 92,
            "max" : [
                0.9975585341453552,
                0.9889522790908813,
                0.9980468153953552
            ],
            "min" : [
                -0.9786980748176575,
                -0.49598681926727295,
                -0.9984435439109802
            ],
            "type" : "VEC3"
        }
    ],
    "asset" : {
        "generator" : "Khronos Blender glTF 2.0 exporter",
        "version" : "2.0"
    },
    "bufferViews" : [
        {
            "buffer" : 0,
            "byteLength" : 216,
            "byteOffset" : 0,
            "target" : 34963
        },
        {
            "buffer" : 0,
            "byteLength" : 1104,
            "byteOffset" : 216,
            "target" : 34962
        },
        {
            "buffer" : 0,
            "byteLength" : 1104,
            "byteOffset" : 1320,
            "target" : 34962
        }
    ],
    "buffers" : [
        {
            "byteLength" : 2424,
            "uri" : "grass3.bin"
        }
    ],
    "materials" : [
        {
            "name" : "Grass_1",
            "pbrMetallicRoughness" : {
                "baseColorFactor" : [
                    0.33672800565850736,
                    0.5207547265403676,
                    0.10562478461302494,
                    1.0
                ],
                "metallicFactor" : 0.0
            }
        }
    ],
    "meshes" : [
        {
            "name" : "Scene",
            "primitives" : [
                {
                    "attributes" : {
                        "NORMAL" : 2,
                        "POSITION" : 1
                    },
                    "indices" : 0,
                    "material" : 0
                }
            ]
        }
    ],
    "nodes" : [
        {
            "mesh" : 0,
            "name" : "Grass_2_1",
            "rotation" : [
                0.7071068286895752,
                0.0,
                0.0,
                0.7071067094802856
            ],
            "scale" : [
                0.009999999776482582,
                0.009999999776482582,
                0.009999999776482582
            ]
        }
    ],
    "scene" : 0,
    "scenes" : [
        {
            "name" : "Scene",
            "nodes" : [
                0
            ]
        }
    ]
}
