{
    "accessors" : [
        {
            "bufferView" : 0,
            "componentType" : 5123,
            "count" : 120,
            "max" : [
                99
            ],
            "min" : [
                0
            ],
            "type" : "SCALAR"
        },
        {
            "bufferView" : 1,
            "componentType" : 5126,
            "count" : 100,
            "max" : [
                81.99319458007812,
                69.3489761352539,
                87.52227783203125
            ],
            "min" : [
                -82.8035659790039,
                -5.261761665344238,
                -80.98807525634766
            ],
            "type" : "VEC3"
        },
        {
            "bufferView" : 2,
            "componentType" : 5126,
            "count" : 100,
            "max" : [
                0.8351085186004639,
                0.9942930340766907,
                0.6829127073287964
            ],
            "min" : [
                -0.8200933933258057,
                0.3799859583377838,
                -0.6308175921440125
            ],
            "type" : "VEC3"
        }
    ],
    "asset" : {
        "generator" : "Khronos Blender glTF 2.0 exporter",
        "version" : "2.0"
    },
    "bufferViews" : [
        {
            "buffer" : 0,
            "byteLength" : 240,
            "byteOffset" : 0,
            "target" : 34963
        },
        {
            "buffer" : 0,
            "byteLength" : 1200,
            "byteOffset" : 240,
            "target" : 34962
        },
        {
            "buffer" : 0,
            "byteLength" : 1200,
            "byteOffset" : 1440,
            "target" : 34962
        }
    ],
    "buffers" : [
        {
            "byteLength" : 2640,
            "uri" : "plant1.bin"
        }
    ],
    "materials" : [
        {
            "name" : "Bush_1",
            "pbrMetallicRoughness" : {
                "baseColorFactor" : [
                    0.1741331245621014,
                    0.27924528538056137,
                    0.10405838644591547,
                    1.0
                ],
                "metallicFactor" : 0.0
            }
        }
    ],
    "meshes" : [
        {
            "name" : "Scene",
            "primitives" : [
                {
                    "attributes" : {
                        "NORMAL" : 2,
                        "POSITION" : 1
                    },
                    "indices" : 0,
                    "material" : 0
                }
            ]
        }
    ],
    "nodes" : [
        {
            "mesh" : 0,
            "name" : "Plant_1_1",
            "rotation" : [
                0.7071068286895752,
                0.0,
                0.0,
                0.7071067094802856
            ],
            "scale" : [
                0.009999999776482582,
                0.009999999776482582,
                0.009999999776482582
            ]
        }
    ],
    "scene" : 0,
    "scenes" : [
        {
            "name" : "Scene",
            "nodes" : [
                0
            ]
        }
    ]
}
