{
    "accessors" : [
        {
            "bufferView" : 0,
            "componentType" : 5123,
            "count" : 1200,
            "max" : [
                269
            ],
            "min" : [
                0
            ],
            "type" : "SCALAR"
        },
        {
            "bufferView" : 1,
            "componentType" : 5126,
            "count" : 270,
            "max" : [
                216.77728271484375,
                147.2948760986328,
                529.1296997070312
            ],
            "min" : [
                -229.54525756835938,
                -175.17213439941406,
                -17.19301986694336
            ],
            "type" : "VEC3"
        },
        {
            "bufferView" : 2,
            "componentType" : 5126,
            "count" : 270,
            "max" : [
                0.982665479183197,
                0.99908447265625,
                0.9924924373626709
            ],
            "min" : [
                -0.9985045790672302,
                -0.9956053495407104,
                -0.9067049026489258
            ],
            "type" : "VEC3"
        },
        {
            "bufferView" : 3,
            "componentType" : 5126,
            "count" : 270,
            "max" : [
                0.9774442315101624,
                0.9881886839866638,
                0.9895159006118774,
                1.0
            ],
            "min" : [
                -0.9898756146430969,
                -0.9895503520965576,
                -0.9902708530426025,
                1.0
            ],
            "type" : "VEC4"
        },
        {
            "bufferView" : 4,
            "componentType" : 5126,
            "count" : 270,
            "max" : [
                0.8748704195022583,
                0.9957250980660319
            ],
            "min" : [
                0.0031103957444429398,
                0.1464340090751648
            ],
            "type" : "VEC2"
        },
        {
            "bufferView" : 5,
            "componentType" : 5123,
            "count" : 912,
            "max" : [
                815
            ],
            "min" : [
                0
            ],
            "type" : "SCALAR"
        },
        {
            "bufferView" : 6,
            "componentType" : 5126,
            "count" : 816,
            "max" : [
                382.68280029296875,
                240.48550415039062,
                799.6060791015625
            ],
            "min" : [
                -331.0858154296875,
                -315.3133850097656,
                286.5303039550781
            ],
            "type" : "VEC3"
        },
        {
            "bufferView" : 7,
            "componentType" : 5126,
            "count" : 816,
            "max" : [
                0.7185277938842773,
                0.7581102848052979,
                0.99957275390625
            ],
            "min" : [
                -0.6597186326980591,
                -0.8360240459442139,
                0.4754478633403778
            ],
            "type" : "VEC3"
        },
        {
            "bufferView" : 8,
            "componentType" : 5126,
            "count" : 816,
            "max" : [
                0.9950484037399292,
                0.9969125986099243,
                0.6472264528274536,
                1.0
            ],
            "min" : [
                -0.9965448975563049,
                -0.9961909651756287,
                -0.6491172909736633,
                1.0
            ],
            "type" : "VEC4"
        },
        {
            "bufferView" : 9,
            "componentType" : 5126,
            "count" : 816,
            "max" : [
                0.8087999820709229,
                0.6583999991416931
            ],
            "min" : [
                0.20309999585151672,
                0.013999998569488525
            ],
            "type" : "VEC2"
        }
    ],
    "asset" : {
        "generator" : "Khronos Blender glTF 2.0 exporter",
        "version" : "2.0"
    },
    "bufferViews" : [
        {
            "buffer" : 0,
            "byteLength" : 2400,
            "byteOffset" : 0,
            "target" : 34963
        },
        {
            "buffer" : 0,
            "byteLength" : 3240,
            "byteOffset" : 2400,
            "target" : 34962
        },
        {
            "buffer" : 0,
            "byteLength" : 3240,
            "byteOffset" : 5640,
            "target" : 34962
        },
        {
            "buffer" : 0,
            "byteLength" : 4320,
            "byteOffset" : 8880,
            "target" : 34962
        },
        {
            "buffer" : 0,
            "byteLength" : 2160,
            "byteOffset" : 13200,
            "target" : 34962
        },
        {
            "buffer" : 0,
            "byteLength" : 1824,
            "byteOffset" : 15360,
            "target" : 34963
        },
        {
            "buffer" : 0,
            "byteLength" : 9792,
            "byteOffset" : 17184,
            "target" : 34962
        },
        {
            "buffer" : 0,
            "byteLength" : 9792,
            "byteOffset" : 26976,
            "target" : 34962
        },
        {
            "buffer" : 0,
            "byteLength" : 13056,
            "byteOffset" : 36768,
            "target" : 34962
        },
        {
            "buffer" : 0,
            "byteLength" : 6528,
            "byteOffset" : 49824,
            "target" : 34962
        }
    ],
    "buffers" : [
        {
            "byteLength" : 56352,
            "uri" : "tree7.bin"
        }
    ],
    "images" : [
        {
            "name" : "Plants",
            "uri" : "Plants.png"
        },
        {
            "name" : "DiffuseColor_Texture",
            "uri" : "DiffuseColor_Texture.png"
        },
        {
            "name" : "NormalMap_Texture",
            "uri" : "NormalMap_Texture.png"
        }
    ],
    "materials" : [
        {
            "alphaMode" : "MASK",
            "name" : "Plants.006",
            "pbrMetallicRoughness" : {
                "baseColorFactor" : [
                    0.800000011920929,
                    0.800000011920929,
                    0.800000011920929,
                    1.0
                ],
                "baseColorTexture" : {
                    "index" : 0
                },
                "metallicFactor" : 0.0
            }
        },
        {
            "name" : "tree.006",
            "normalTexture" : {
                "index" : 2
            },
            "pbrMetallicRoughness" : {
                "baseColorFactor" : [
                    0.800000011920929,
                    0.800000011920929,
                    0.800000011920929,
                    1.0
                ],
                "baseColorTexture" : {
                    "index" : 1
                },
                "metallicFactor" : 0.0
            }
        }
    ],
    "meshes" : [
        {
            "name" : "Scene.006",
            "primitives" : [
                {
                    "attributes" : {
                        "NORMAL" : 2,
                        "POSITION" : 1,
                        "TANGENT" : 3,
                        "TEXCOORD_0" : 4
                    },
                    "indices" : 0,
                    "material" : 1
                },
                {
                    "attributes" : {
                        "NORMAL" : 7,
                        "POSITION" : 6,
                        "TANGENT" : 8,
                        "TEXCOORD_0" : 9
                    },
                    "indices" : 5,
                    "material" : 0
                }
            ]
        }
    ],
    "nodes" : [
        {
            "mesh" : 0,
            "name" : "tree_08",
            "rotation" : [
                -2.1855694143368964e-08,
                0.0,
                0.0,
                1.0
            ],
            "scale" : [
                0.009999999776482582,
                0.010000002570450306,
                0.010000002570450306
            ]
        }
    ],
    "samplers" : [
        {}
    ],
    "scene" : 0,
    "scenes" : [
        {
            "name" : "Scene",
            "nodes" : [
                0
            ]
        }
    ],
    "textures" : [
        {
            "sampler" : 0,
            "source" : 0
        },
        {
            "sampler" : 0,
            "source" : 1
        },
        {
            "sampler" : 0,
            "source" : 2
        }
    ]
}
