{
    "accessors" : [
        {
            "bufferView" : 0,
            "componentType" : 5123,
            "count" : 840,
            "max" : [
                839
            ],
            "min" : [
                0
            ],
            "type" : "SCALAR"
        },
        {
            "bufferView" : 1,
            "componentType" : 5126,
            "count" : 840,
            "max" : [
                255.1374969482422,
                196.71591186523438,
                783.9644165039062
            ],
            "min" : [
                -212.0277099609375,
                -276.60101318359375,
                264.001220703125
            ],
            "type" : "VEC3"
        },
        {
            "bufferView" : 2,
            "componentType" : 5126,
            "count" : 840,
            "max" : [
                0.7425763607025146,
                0.8518326282501221,
                0.999786376953125
            ],
            "min" : [
                -0.7435529828071594,
                -0.6783654093742371,
                0.52183598279953
            ],
            "type" : "VEC3"
        },
        {
            "bufferView" : 3,
            "componentType" : 5126,
            "count" : 840,
            "max" : [
                0.9991702437400818,
                0.9998129606246948,
                0.768584132194519,
                1.0
            ],
            "min" : [
                -0.998025119304657,
                -0.9995355606079102,
                -0.8126580715179443,
                1.0
            ],
            "type" : "VEC4"
        },
        {
            "bufferView" : 4,
            "componentType" : 5126,
            "count" : 840,
            "max" : [
                0.9926999807357788,
                0.2027999758720398
            ],
            "min" : [
                0.8026999831199646,
                0.012899994850158691
            ],
            "type" : "VEC2"
        },
        {
            "bufferView" : 5,
            "componentType" : 5123,
            "count" : 1494,
            "max" : [
                355
            ],
            "min" : [
                0
            ],
            "type" : "SCALAR"
        },
        {
            "bufferView" : 6,
            "componentType" : 5126,
            "count" : 356,
            "max" : [
                114.09820556640625,
                106.97966766357422,
                740.5368041992188
            ],
            "min" : [
                -63.22612762451172,
                -134.75230407714844,
                -20.383872985839844
            ],
            "type" : "VEC3"
        },
        {
            "bufferView" : 7,
            "componentType" : 5126,
            "count" : 356,
            "max" : [
                0.9972838759422302,
                0.9964598417282104,
                0.9794915318489075
            ],
            "min" : [
                -0.9984130263328552,
                -0.9949949383735657,
                -0.904538094997406
            ],
            "type" : "VEC3"
        },
        {
            "bufferView" : 8,
            "componentType" : 5126,
            "count" : 356,
            "max" : [
                0.9804977774620056,
                0.9860610365867615,
                0.9979114532470703,
                1.0
            ],
            "min" : [
                -0.9959560036659241,
                -0.9988040328025818,
                -0.9991806149482727,
                1.0
            ],
            "type" : "VEC4"
        },
        {
            "bufferView" : 9,
            "componentType" : 5126,
            "count" : 356,
            "max" : [
                0.8612477779388428,
                0.9958149883896112
            ],
            "min" : [
                0.003770186100155115,
                0.00832456350326538
            ],
            "type" : "VEC2"
        }
    ],
    "asset" : {
        "generator" : "Khronos Blender glTF 2.0 exporter",
        "version" : "2.0"
    },
    "bufferViews" : [
        {
            "buffer" : 0,
            "byteLength" : 1680,
            "byteOffset" : 0,
            "target" : 34963
        },
        {
            "buffer" : 0,
            "byteLength" : 10080,
            "byteOffset" : 1680,
            "target" : 34962
        },
        {
            "buffer" : 0,
            "byteLength" : 10080,
            "byteOffset" : 11760,
            "target" : 34962
        },
        {
            "buffer" : 0,
            "byteLength" : 13440,
            "byteOffset" : 21840,
            "target" : 34962
        },
        {
            "buffer" : 0,
            "byteLength" : 6720,
            "byteOffset" : 35280,
            "target" : 34962
        },
        {
            "buffer" : 0,
            "byteLength" : 2988,
            "byteOffset" : 42000,
            "target" : 34963
        },
        {
            "buffer" : 0,
            "byteLength" : 4272,
            "byteOffset" : 44988,
            "target" : 34962
        },
        {
            "buffer" : 0,
            "byteLength" : 4272,
            "byteOffset" : 49260,
            "target" : 34962
        },
        {
            "buffer" : 0,
            "byteLength" : 5696,
            "byteOffset" : 53532,
            "target" : 34962
        },
        {
            "buffer" : 0,
            "byteLength" : 2848,
            "byteOffset" : 59228,
            "target" : 34962
        }
    ],
    "buffers" : [
        {
            "byteLength" : 62076,
            "uri" : "tree3.bin"
        }
    ],
    "images" : [
        {
            "name" : "Plants",
            "uri" : "Plants.png"
        },
        {
            "name" : "DiffuseColor_Texture",
            "uri" : "DiffuseColor_Texture.png"
        },
        {
            "name" : "NormalMap_Texture",
            "uri" : "NormalMap_Texture.png"
        }
    ],
    "materials" : [
        {
            "alphaMode" : "MASK",
            "name" : "Plants.002",
            "pbrMetallicRoughness" : {
                "baseColorFactor" : [
                    0.800000011920929,
                    0.800000011920929,
                    0.800000011920929,
                    1.0
                ],
                "baseColorTexture" : {
                    "index" : 0
                },
                "metallicFactor" : 0.0
            }
        },
        {
            "name" : "tree.002",
            "normalTexture" : {
                "index" : 2
            },
            "pbrMetallicRoughness" : {
                "baseColorFactor" : [
                    0.800000011920929,
                    0.800000011920929,
                    0.800000011920929,
                    1.0
                ],
                "baseColorTexture" : {
                    "index" : 1
                },
                "metallicFactor" : 0.0
            }
        }
    ],
    "meshes" : [
        {
            "name" : "Scene.002",
            "primitives" : [
                {
                    "attributes" : {
                        "NORMAL" : 2,
                        "POSITION" : 1,
                        "TANGENT" : 3,
                        "TEXCOORD_0" : 4
                    },
                    "indices" : 0,
                    "material" : 0
                },
                {
                    "attributes" : {
                        "NORMAL" : 7,
                        "POSITION" : 6,
                        "TANGENT" : 8,
                        "TEXCOORD_0" : 9
                    },
                    "indices" : 5,
                    "material" : 1
                }
            ]
        }
    ],
    "nodes" : [
        {
            "mesh" : 0,
            "name" : "tree_03",
            "rotation" : [
                -2.1855694143368964e-08,
                0.0,
                0.0,
                1.0
            ],
            "scale" : [
                0.009999999776482582,
                0.010000002570450306,
                0.010000002570450306
            ]
        }
    ],
    "samplers" : [
        {}
    ],
    "scene" : 0,
    "scenes" : [
        {
            "name" : "Scene",
            "nodes" : [
                0
            ]
        }
    ],
    "textures" : [
        {
            "sampler" : 0,
            "source" : 0
        },
        {
            "sampler" : 0,
            "source" : 1
        },
        {
            "sampler" : 0,
            "source" : 2
        }
    ]
}
